<?xml version="1.0" encoding="UTF-8" standalone="no"?>
<!DOCTYPE svg PUBLIC "-//W3C//DTD SVG 1.1//EN" "http://www.w3.org/Graphics/SVG/1.1/DTD/svg11.dtd">
<svg width="100%" height="100%" viewBox="0 0 2039 472" version="1.1" xmlns="http://www.w3.org/2000/svg" xmlns:xlink="http://www.w3.org/1999/xlink" xml:space="preserve" xmlns:serif="http://www.serif.com/" style="fill-rule:evenodd;clip-rule:evenodd;stroke-linejoin:round;stroke-miterlimit:2;">
    <g transform="matrix(1,0,0,1,-3.63283,-144.794)">
        <g transform="matrix(2.33475,0,0,2.33475,-1119.85,-1180.73)">
            <path d="M518.618,677.154L518.618,685.942L550.082,685.942L550.082,742.917C550.082,751.421 544.129,761.059 535.626,761.059L506.996,761.059C498.492,761.059 492.823,751.421 492.823,742.917L492.823,594.383C492.823,585.88 498.492,576.242 506.996,576.242L533.641,576.242C542.145,576.242 547.814,585.88 547.814,594.383L547.814,631.517L559.436,631.517L559.436,594.383C559.436,580.21 548.098,568.022 534.208,567.738L506.996,567.738C492.823,567.738 481.201,580.21 481.201,594.383L481.201,742.917C481.201,757.091 492.823,769.563 506.996,769.563L535.909,769.563C550.082,769.563 561.421,757.091 561.421,742.917L561.421,677.154L518.618,677.154Z" style="fill-rule:nonzero;"/>
            <path d="M641.357,625.281L639.089,624.997L607.625,624.997C598.271,624.997 590.617,633.501 590.617,643.139L590.617,750.854C590.617,759.358 597.137,767.579 605.357,768.429L607.625,768.712L639.089,768.712C648.727,768.712 656.38,760.209 656.38,750.854L656.38,643.139C656.38,634.352 649.861,626.415 641.357,625.281ZM610.743,760.209C609.609,760.209 608.759,759.925 607.625,759.642C604.507,758.508 601.956,754.539 601.956,750.854L601.956,643.139C601.956,639.17 604.507,635.202 607.625,634.068C608.759,633.785 609.609,633.501 610.743,633.501L636.255,633.501C637.388,633.501 638.239,633.785 639.089,634.068C642.491,635.202 644.758,639.17 644.758,643.139L644.758,750.854C644.758,754.539 642.491,758.508 639.089,759.642C638.239,759.925 637.388,760.209 636.255,760.209L610.743,760.209Z" style="fill-rule:nonzero;"/>
            <path d="M709.104,760.209C707.97,760.209 707.12,759.925 706.27,759.642C702.868,758.508 700.6,755.39 700.6,751.421L700.6,634.352L717.608,634.352L717.608,625.564L700.6,625.564L700.6,585.596L688.978,585.596L688.978,625.564L671.971,625.564L671.971,634.352L688.978,634.352L688.978,751.421C688.978,761.059 696.632,768.712 706.27,768.712L720.443,768.712L720.443,760.209L709.104,760.209Z" style="fill-rule:nonzero;"/>
            <path d="M781.103,693.595C771.749,688.776 759.277,683.957 751.623,679.422C745.671,676.304 742.836,674.887 742.836,665.816L742.836,643.139C742.836,639.17 745.387,635.202 748.505,634.068C749.639,633.785 750.49,633.501 751.623,633.501L768.631,633.501C769.765,633.501 770.615,633.785 771.466,634.068C774.867,635.202 777.135,639.17 777.135,643.139L777.135,668.65L788.757,668.65L788.757,643.139C788.757,633.501 780.82,624.997 771.466,624.997L748.505,624.997C739.151,624.997 731.498,633.501 731.498,643.139L731.498,665.816C731.498,673.469 731.498,681.69 742.836,687.642C753.324,692.745 762.678,696.713 771.182,701.249C776.001,703.8 779.97,706.634 779.97,714.571L779.97,750.854C779.97,754.539 777.702,758.508 774.3,759.642C773.45,759.925 772.6,760.209 771.466,760.209L751.623,760.209C750.49,760.209 749.639,759.925 748.505,759.642C745.387,758.508 742.836,754.539 742.836,750.854L742.836,717.406L731.498,717.406L731.498,750.854C731.498,760.209 739.151,768.712 748.505,768.712L774.3,768.712C783.938,768.712 791.592,760.209 791.592,750.854L791.592,711.453C791.592,711.453 791.592,698.697 781.103,693.595Z" style="fill-rule:nonzero;"/>
            <path d="M862.74,625.848L862.74,760.209L834.394,760.209C833.26,760.209 832.41,759.925 831.276,759.642C828.158,758.508 825.607,754.539 825.607,750.854L825.607,625.848L814.268,625.848L814.268,750.854C814.268,760.209 821.922,768.712 831.276,768.712L874.362,768.712L874.362,625.848L862.74,625.848Z" style="fill-rule:nonzero;"/>
            <g>
                <g transform="matrix(0.206521,0,0,0.338001,703.216,367.172)">
                    <ellipse cx="991.376" cy="976.328" rx="39.956" ry="211.634"/>
                    <clipPath id="_clip1">
                        <ellipse cx="991.376" cy="976.328" rx="39.956" ry="211.634"/>
                    </clipPath>
                    <g clip-path="url(#_clip1)">
                        <g transform="matrix(0.164776,0,0,0.0922065,788.649,973.988)">
                            <ellipse cx="1230.32" cy="977.757" rx="132.553" ry="144.734" style="fill:white;"/>
                        </g>
                        <g transform="matrix(0.101022,0,0,0.0565303,867.087,1010.89)">
                            <ellipse cx="1230.32" cy="977.757" rx="132.553" ry="144.734" style="fill:rgb(26,0,0);"/>
                        </g>
                    </g>
                </g>
                <g transform="matrix(0.428311,0,0,0.428311,479.645,505.721)">
                    <path d="M964.645,185.299C945.118,204.825 945.118,236.483 964.645,256.009C984.158,275.523 1015.84,275.523 1035.36,256.009C1054.88,236.483 1054.88,204.825 1035.36,185.299L1000,220.654L964.645,185.299Z"/>
                </g>
            </g>
            <g transform="matrix(-1,-1.22298e-16,1.22298e-16,-1,2240.94,1353.79)">
                <g transform="matrix(0.206521,0,0,0.338001,703.216,367.172)">
                    <ellipse cx="991.376" cy="976.328" rx="39.956" ry="211.634"/>
                    <clipPath id="_clip2">
                        <ellipse cx="991.376" cy="976.328" rx="39.956" ry="211.634"/>
                    </clipPath>
                    <g clip-path="url(#_clip2)">
                        <g transform="matrix(0.164776,0,0,0.0922065,788.649,973.988)">
                            <ellipse cx="1230.32" cy="977.757" rx="132.553" ry="144.734" style="fill:white;"/>
                        </g>
                        <g transform="matrix(0.101022,0,0,0.0565303,867.087,1010.89)">
                            <ellipse cx="1230.32" cy="977.757" rx="132.553" ry="144.734" style="fill:rgb(26,0,0);"/>
                        </g>
                    </g>
                </g>
                <g transform="matrix(0.428311,0,0,0.428311,479.645,505.721)">
                    <path d="M964.645,185.299C945.118,204.825 945.118,236.483 964.645,256.009C984.158,275.523 1015.84,275.523 1035.36,256.009C1054.88,236.483 1054.88,204.825 1035.36,185.299L1000,220.654L964.645,185.299Z"/>
                </g>
            </g>
            <path d="M1037.64,625.848L1013.54,757.091L994.267,625.848L984.912,625.848L965.354,757.091L941.543,625.848L930.771,625.848L956.566,768.712L973.574,768.712L989.448,657.879L1005.32,768.712L1022.61,768.712L1048.12,625.848L1037.64,625.848Z" style="fill-rule:nonzero;"/>
            <path d="M1111.34,624.997L1082.99,624.997C1073.35,624.997 1065.7,633.501 1065.7,643.139L1065.7,662.981L1077.04,662.981L1077.04,643.139C1077.04,639.17 1079.59,635.202 1082.99,634.068C1083.84,633.785 1084.69,633.501 1085.83,633.501L1108.5,633.501C1109.64,633.501 1110.49,633.785 1111.34,634.068C1114.74,635.202 1117.01,639.17 1117.01,643.139L1117.01,680.272L1079.87,680.272C1070.52,680.272 1062.86,687.926 1062.86,697.28L1062.86,750.854C1062.86,760.209 1070.52,768.712 1079.87,768.712L1128.63,768.712L1128.63,643.139C1128.63,633.501 1120.97,624.997 1111.34,624.997ZM1117.01,760.209L1082.99,760.209C1081.86,760.209 1081.01,759.925 1079.87,759.642C1076.75,758.508 1074.2,754.539 1074.2,750.854L1074.2,697.28C1074.2,693.595 1076.75,690.477 1079.87,689.343C1081.01,689.06 1081.86,688.776 1082.99,688.776L1117.01,688.776L1117.01,760.209Z" style="fill-rule:nonzero;"/>
            <path d="M1199.78,693.595C1190.42,688.776 1177.95,683.957 1170.3,679.422C1164.34,676.304 1161.51,674.887 1161.51,665.816L1161.51,643.139C1161.51,639.17 1164.06,635.202 1167.18,634.068C1168.31,633.785 1169.16,633.501 1170.3,633.501L1187.3,633.501C1188.44,633.501 1189.29,633.785 1190.14,634.068C1193.54,635.202 1195.81,639.17 1195.81,643.139L1195.81,668.65L1207.43,668.65L1207.43,643.139C1207.43,633.501 1199.49,624.997 1190.14,624.997L1167.18,624.997C1157.82,624.997 1150.17,633.501 1150.17,643.139L1150.17,665.816C1150.17,673.469 1150.17,681.69 1161.51,687.642C1172,692.745 1181.35,696.713 1189.86,701.249C1194.67,703.8 1198.64,706.634 1198.64,714.571L1198.64,750.854C1198.64,754.539 1196.38,758.508 1192.97,759.642C1192.12,759.925 1191.27,760.209 1190.14,760.209L1170.3,760.209C1169.16,760.209 1168.31,759.925 1167.18,759.642C1164.06,758.508 1161.51,754.539 1161.51,750.854L1161.51,717.406L1150.17,717.406L1150.17,750.854C1150.17,760.209 1157.82,768.712 1167.18,768.712L1192.97,768.712C1202.61,768.712 1210.26,760.209 1210.26,750.854L1210.26,711.453C1210.26,711.453 1210.26,698.697 1199.78,693.595Z" style="fill-rule:nonzero;"/>
            <path d="M1287.37,625.848L1244.28,625.848L1244.28,568.588L1232.94,568.588L1232.94,768.712L1244.28,768.712L1244.28,634.352L1284.25,634.352C1285.95,634.352 1287.37,635.769 1287.37,637.186L1287.37,768.712L1298.7,768.712L1298.7,637.186C1298.7,630.95 1293.6,625.848 1287.37,625.848Z" style="fill-rule:nonzero;"/>
        </g>
    </g>
</svg>
