<?xml version="1.0" encoding="UTF-8" standalone="no"?>
<svg
   xmlns:dc="http://purl.org/dc/elements/1.1/"
   xmlns:cc="http://creativecommons.org/ns#"
   xmlns:rdf="http://www.w3.org/1999/02/22-rdf-syntax-ns#"
   xmlns:svg="http://www.w3.org/2000/svg"
   xmlns="http://www.w3.org/2000/svg"
   xmlns:sodipodi="http://sodipodi.sourceforge.net/DTD/sodipodi-0.dtd"
   xmlns:inkscape="http://www.inkscape.org/namespaces/inkscape"
   inkscape:version="1.0 (4035a4fb49, 2020-05-01)"
   sodipodi:docname="twitter-white-svg.svg"
   xml:space="preserve"
   style="enable-background:new 0 0 455.731 455.731;"
   viewBox="0 0 455.731 455.731"
   y="0px"
   x="0px"
   id="Capa_1"
   version="1.1"><metadata
   id="metadata43"><rdf:RDF><cc:Work
       rdf:about=""><dc:format>image/svg+xml</dc:format><dc:type
         rdf:resource="http://purl.org/dc/dcmitype/StillImage" /><dc:title></dc:title></cc:Work></rdf:RDF></metadata><defs
   id="defs41" /><sodipodi:namedview
   inkscape:current-layer="g6"
   inkscape:window-maximized="1"
   inkscape:window-y="-9"
   inkscape:window-x="-9"
   inkscape:cy="133.38862"
   inkscape:cx="194.32841"
   inkscape:zoom="1.7993071"
   showgrid="false"
   id="namedview39"
   inkscape:window-height="1619"
   inkscape:window-width="1280"
   inkscape:pageshadow="2"
   inkscape:pageopacity="0"
   guidetolerance="10"
   gridtolerance="10"
   objecttolerance="10"
   borderopacity="1"
   bordercolor="#666666"
   pagecolor="#ffffff" />
<g
   id="g6">
	
	<path
   id="path4"
   d="M60.377,337.822c30.33,19.236,66.308,30.368,104.875,30.368c108.349,0,196.18-87.841,196.18-196.18   c0-2.705-0.057-5.39-0.161-8.067c3.919-3.084,28.157-22.511,34.098-35c0,0-19.683,8.18-38.947,10.107   c-0.038,0-0.085,0.009-0.123,0.009c0,0,0.038-0.019,0.104-0.066c1.775-1.186,26.591-18.079,29.951-38.207   c0,0-13.922,7.431-33.415,13.932c-3.227,1.072-6.605,2.126-10.088,3.103c-12.565-13.41-30.425-21.78-50.25-21.78   c-38.027,0-68.841,30.805-68.841,68.803c0,5.362,0.617,10.581,1.784,15.592c-5.314-0.218-86.237-4.755-141.289-71.423   c0,0-32.902,44.917,19.607,91.105c0,0-15.962-0.636-29.733-8.864c0,0-5.058,54.416,54.407,68.329c0,0-11.701,4.432-30.368,1.272   c0,0,10.439,43.968,63.271,48.077c0,0-41.777,37.74-101.081,28.885L60.377,337.822z"
   style="fill:#FFFFFF;" />
</g>
<g
   id="g8">
</g>
<g
   id="g10">
</g>
<g
   id="g12">
</g>
<g
   id="g14">
</g>
<g
   id="g16">
</g>
<g
   id="g18">
</g>
<g
   id="g20">
</g>
<g
   id="g22">
</g>
<g
   id="g24">
</g>
<g
   id="g26">
</g>
<g
   id="g28">
</g>
<g
   id="g30">
</g>
<g
   id="g32">
</g>
<g
   id="g34">
</g>
<g
   id="g36">
</g>
</svg>
